<?xml version="1.0" encoding="utf-8"?>
<!-- Generator: Adobe Illustrator 24.0.0, SVG Export Plug-In . SVG Version: 6.00 Build 0)  -->
<svg version="1.1" id="Layer_1" xmlns="http://www.w3.org/2000/svg" xmlns:xlink="http://www.w3.org/1999/xlink" x="0px" y="0px"
	 viewBox="0 0 27.2 8.7" style="enable-background:new 0 0 27.2 8.7;" xml:space="preserve">
<style type="text/css">
	.st0{enable-background:new    ;}
	.st1{fill:#909090;}
	.st2{fill:#FF500D;}
</style>
<g id="eduSign_1_">
	<g class="st0">
		<path class="st1" d="M2.3,6.7c-0.6,0-1.1-0.2-1.5-0.6S0.3,5.2,0.3,4.6V4.5c0-0.4,0.1-0.8,0.2-1.1S1,2.7,1.3,2.6s0.6-0.3,1-0.3
			c0.6,0,1,0.2,1.3,0.6S4,3.7,4,4.4v0.4H1.3c0,0.3,0.1,0.6,0.3,0.8s0.5,0.3,0.8,0.3c0.4,0,0.8-0.2,1.1-0.5L4,5.9
			C3.8,6.1,3.6,6.3,3.3,6.5S2.7,6.7,2.3,6.7z M2.2,3C2,3,1.8,3.1,1.6,3.3S1.3,3.8,1.3,4.1h1.8V4c0-0.3-0.1-0.6-0.3-0.7S2.5,3,2.2,3z
			"/>
		<path class="st1" d="M4.3,4.4c0-0.7,0.2-1.2,0.5-1.6s0.7-0.6,1.2-0.6c0.4,0,0.8,0.2,1.1,0.5V0.6H8v6H7.1l0-0.4
			C6.8,6.5,6.4,6.7,5.9,6.7C5.4,6.7,5,6.5,4.7,6.1S4.3,5.1,4.3,4.4z M5.2,4.5c0,0.4,0.1,0.8,0.2,1s0.4,0.4,0.7,0.4
			c0.4,0,0.7-0.2,0.9-0.5V3.6C6.9,3.2,6.6,3.1,6.2,3.1c-0.3,0-0.5,0.1-0.7,0.4S5.2,4,5.2,4.5z"/>
		<path class="st1" d="M11.2,6.2c-0.3,0.3-0.7,0.5-1.2,0.5c-0.5,0-0.8-0.1-1-0.4S8.6,5.6,8.6,5.1V2.4h0.9v2.7c0,0.5,0.2,0.8,0.7,0.8
			c0.5,0,0.8-0.2,0.9-0.5v-3h0.9v4.2h-0.9L11.2,6.2z"/>
	</g>
	<g class="st0">
		<path class="st2" d="M15.8,5.1c0-0.2-0.1-0.4-0.3-0.6s-0.5-0.3-1-0.4c-0.5-0.1-0.8-0.3-1.1-0.5c-0.5-0.3-0.8-0.8-0.8-1.3
			c0-0.5,0.2-0.8,0.6-1.1s0.9-0.4,1.5-0.4c0.4,0,0.7,0.1,1.1,0.2c0.3,0.1,0.6,0.4,0.7,0.6c0.2,0.3,0.3,0.6,0.3,0.9h-1
			c0-0.3-0.1-0.5-0.3-0.7c-0.2-0.2-0.5-0.3-0.8-0.3c-0.3,0-0.6,0.1-0.8,0.2c-0.2,0.1-0.3,0.3-0.3,0.6c0,0.2,0.1,0.4,0.3,0.5
			c0.2,0.1,0.5,0.3,1,0.4c0.4,0.1,0.8,0.3,1.1,0.4c0.3,0.2,0.5,0.4,0.6,0.6s0.2,0.5,0.2,0.8c0,0.5-0.2,0.9-0.5,1.1s-0.9,0.4-1.5,0.4
			c-0.4,0-0.8-0.1-1.1-0.2s-0.6-0.4-0.8-0.6s-0.3-0.6-0.3-0.9h1c0,0.3,0.1,0.6,0.3,0.8c0.2,0.2,0.5,0.3,0.9,0.3
			c0.3,0,0.6-0.1,0.8-0.2C15.8,5.5,15.8,5.3,15.8,5.1z"/>
		<path class="st2" d="M17.3,1.3c0-0.1,0-0.3,0.1-0.4c0.1-0.1,0.2-0.1,0.4-0.1s0.3,0,0.4,0.1s0.1,0.2,0.1,0.4c0,0.1,0,0.3-0.1,0.4
			S18,1.8,17.8,1.8s-0.3,0-0.4-0.1C17.3,1.5,17.3,1.4,17.3,1.3z M18.3,6.6h-0.9V2.4h0.9V6.6z"/>
		<path class="st2" d="M18.8,4.4c0-0.7,0.2-1.2,0.5-1.6s0.7-0.6,1.2-0.6c0.5,0,0.9,0.2,1.1,0.5l0-0.4h0.9v4.1c0,0.6-0.2,1-0.5,1.3
			c-0.3,0.3-0.8,0.5-1.4,0.5c-0.3,0-0.6-0.1-0.9-0.2c-0.3-0.1-0.5-0.3-0.7-0.5L19.5,7c0.3,0.3,0.7,0.5,1.1,0.5
			c0.3,0,0.6-0.1,0.7-0.3c0.2-0.2,0.3-0.4,0.3-0.8V6.2c-0.3,0.3-0.6,0.5-1.1,0.5c-0.5,0-0.9-0.2-1.2-0.6C19,5.7,18.8,5.1,18.8,4.4z
			 M19.8,4.5c0,0.4,0.1,0.8,0.3,1c0.2,0.2,0.4,0.4,0.7,0.4c0.4,0,0.7-0.2,0.9-0.5V3.5c-0.2-0.3-0.5-0.5-0.8-0.5
			c-0.3,0-0.6,0.1-0.7,0.4C19.9,3.7,19.8,4,19.8,4.5z"/>
		<path class="st2" d="M24.1,2.4l0,0.5c0.3-0.4,0.7-0.6,1.2-0.6c0.9,0,1.3,0.5,1.3,1.5v2.8h-0.9V3.8c0-0.3-0.1-0.5-0.2-0.6
			c-0.1-0.1-0.3-0.2-0.6-0.2c-0.4,0-0.7,0.2-0.9,0.5v3h-0.9V2.4H24.1z"/>
	</g>
</g>
</svg>
