<?xml version="1.0" encoding="utf-8"?>
<!-- Generator: Adobe Illustrator 24.0.0, SVG Export Plug-In . SVG Version: 6.00 Build 0)  -->
<svg version="1.1" id="Layer_1" xmlns="http://www.w3.org/2000/svg" xmlns:xlink="http://www.w3.org/1999/xlink" x="0px" y="0px"
	 viewBox="0 0 18.8 21.9" style="enable-background:new 0 0 18.8 21.9;" xml:space="preserve">
<style type="text/css">
	.st0{fill-rule:evenodd;clip-rule:evenodd;fill:#808080;}
</style>
<g id="A4_-_2">
	<g id="Group">
		<path id="Fill_9" class="st0" d="M2.9,9.2V2.8c0,0,0.1-0.2,0.2-0.2h14.5V0.8c-5.8,0-14.5,0-14.5,0c-0.7,0-1.9,0.3-1.9,2v6.4
			c0,1.2,0.7,2,1.9,2h9V9.4h-9C3,9.4,2.9,9.3,2.9,9.2"/>
		<path id="Fill_11" class="st0" d="M15.8,7v6.4c0,0-0.1,0.2-0.2,0.2H1.1v1.8c5.8,0,14.5,0,14.5,0c0.7,0,1.9-0.3,1.9-2V7
			c0-1.2-0.7-2-1.9-2h-9v1.8h9C15.7,6.9,15.8,7,15.8,7"/>
	</g>
</g>
<g>
	<path d="M1.5,20.4c0.2,0.1,0.5,0.3,0.9,0.3c0.5,0,0.8-0.3,0.8-0.7c0-0.4-0.2-0.6-0.7-0.8c-0.6-0.2-1-0.5-1-1.1c0-0.6,0.5-1,1.2-1
		c0.4,0,0.7,0.1,0.8,0.2l-0.1,0.4c-0.1-0.1-0.4-0.2-0.7-0.2c-0.5,0-0.7,0.3-0.7,0.6c0,0.4,0.2,0.5,0.8,0.7c0.6,0.3,1,0.6,1,1.1
		c0,0.6-0.4,1.1-1.3,1.1c-0.4,0-0.8-0.1-1-0.2L1.5,20.4z"/>
	<path d="M4.9,17.2v2.3c0,0.9,0.4,1.2,0.9,1.2c0.6,0,0.9-0.4,0.9-1.2v-2.3h0.5v2.2c0,1.2-0.6,1.7-1.5,1.7c-0.8,0-1.4-0.5-1.4-1.6
		v-2.3H4.9z"/>
	<path d="M8.1,21v-3.8h0.5l1.2,1.9c0.3,0.4,0.5,0.9,0.7,1.2l0,0c0-0.5-0.1-1-0.1-1.6v-1.6H11V21h-0.5l-1.2-1.9
		c-0.3-0.4-0.5-0.9-0.7-1.3l0,0c0,0.5,0,0.9,0,1.6V21H8.1z"/>
	<path d="M13.8,19.2h-1.5v1.4H14V21h-2.2v-3.8h2.1v0.4h-1.6v1.2h1.5V19.2z"/>
	<path d="M15.5,17.6h-1.2v-0.4h2.8v0.4H16V21h-0.5V17.6z"/>
</g>
</svg>
